<svg xmlns="http://www.w3.org/2000/svg" viewBox="0 0 512 512">
  <defs>
    <linearGradient id="bg" x1="0" y1="0" x2="1" y2="1">
      <stop offset="0" stop-color="#0f172a"/>
      <stop offset="1" stop-color="#0369a1"/>
    </linearGradient>
  </defs>
  <rect width="512" height="512" rx="96" fill="url(#bg)"/>
  <path d="M120 274c0-39 32-71 71-71h130c39 0 71 32 71 71s-32 71-71 71H191c-39 0-71-32-71-71zm71-35a35 35 0 0 0 0 70h130a35 35 0 1 0 0-70H191z" fill="#67e8f9"/>
  <circle cx="170" cy="167" r="21" fill="#a5f3fc"/>
  <circle cx="342" cy="167" r="21" fill="#a5f3fc"/>
  <path d="M196 144h120v46H196z" fill="#0891b2"/>
</svg>
